<?xml version="1.0" standalone="no"?>
<!DOCTYPE svg PUBLIC "-//W3C//DTD SVG 20010904//EN"
 "http://www.w3.org/TR/2001/REC-SVG-20010904/DTD/svg10.dtd">
<svg version="1.0" xmlns="http://www.w3.org/2000/svg"
 width="181.000000pt" height="176.000000pt" viewBox="0 0 181.000000 176.000000"
 preserveAspectRatio="xMidYMid meet">
<metadata>
Created by potrace 1.16, written by Peter Selinger 2001-2019
</metadata>
<g transform="translate(0.000000,176.000000) scale(0.100000,-0.100000)"
fill="#000000" stroke="none">
<path d="M733 1695 c-72 -16 -172 -57 -155 -63 12 -4 17 -32 6 -32 -3 0 -14 4
-24 10 -24 13 -94 -15 -87 -34 4 -9 0 -12 -12 -9 -22 6 -121 -67 -121 -89 0
-9 -11 -27 -24 -40 -24 -24 -41 -68 -26 -68 5 0 15 8 22 19 16 23 123 111 136
111 4 0 19 11 32 25 14 15 39 27 66 31 24 3 49 12 55 20 6 8 20 14 30 14 10 0
40 9 66 19 41 16 69 18 182 15 76 -2 141 1 152 6 13 7 20 6 26 -2 4 -7 13 -13
18 -14 49 -2 87 -19 100 -44 10 -19 37 -38 81 -59 67 -32 172 -127 203 -184
16 -30 9 -57 -17 -64 -13 -3 -18 -15 -19 -39 -1 -21 -10 -45 -22 -58 -33 -35
-25 -51 10 -22 17 14 37 26 45 26 9 0 12 4 9 10 -3 5 0 8 7 5 18 -7 42 10 34
24 -4 6 -16 11 -26 11 -13 0 -18 5 -15 15 16 51 14 50 45 20 28 -27 60 -104
60 -144 0 -11 5 -23 10 -26 6 -4 8 -16 4 -27 -3 -11 -2 -23 4 -27 13 -8 23
-119 11 -127 -14 -8 -11 -24 4 -24 15 0 15 -14 -4 -137 -6 -46 -16 -83 -21
-83 -4 0 -8 5 -8 10 0 16 -27 11 -34 -6 -11 -29 -7 -46 10 -40 20 8 12 -18
-34 -106 -28 -55 -40 -68 -59 -68 -20 0 -23 3 -17 27 6 22 4 25 -9 20 -10 -4
-28 3 -44 17 -16 12 -36 26 -46 29 -11 4 -21 16 -24 26 -3 11 -13 21 -24 24
-13 3 -20 15 -20 34 -1 15 -2 37 -3 47 -2 30 -26 32 -26 2 0 -35 -16 -33 -29
5 -6 17 -15 28 -21 24 -17 -10 -11 -30 15 -55 25 -24 36 -51 13 -33 -7 6 -25
13 -40 15 -22 4 -28 1 -28 -13 0 -13 12 -22 40 -30 25 -8 50 -25 66 -46 26
-34 48 -45 38 -18 -12 29 24 15 73 -29 44 -41 47 -46 35 -66 -16 -26 -8 -38
13 -20 20 16 30 7 13 -11 -7 -8 -19 -27 -27 -42 -8 -15 -20 -26 -27 -23 -7 3
-15 0 -17 -7 -3 -9 -8 -9 -18 1 -18 16 -29 15 -29 -3 0 -8 5 -15 11 -15 22 0
-5 -22 -82 -66 -81 -47 -106 -74 -29 -32 141 77 244 148 261 181 7 12 36 51
64 87 76 95 104 144 107 187 1 21 9 51 16 66 20 40 26 232 8 249 -7 7 -16 44
-19 82 -4 38 -11 74 -17 80 -5 5 -10 17 -10 26 0 8 -8 20 -19 27 -10 6 -24 33
-30 58 -8 31 -18 49 -30 52 -11 3 -22 12 -26 21 -12 33 -30 62 -37 62 -4 0
-14 16 -23 36 -10 24 -20 34 -32 32 -10 -2 -22 7 -30 23 -15 30 -30 45 -76 69
-18 10 -31 25 -31 34 1 12 -3 15 -17 11 -13 -4 -19 -2 -19 9 0 16 -57 45 -98
50 -12 2 -28 8 -34 14 -6 6 -17 8 -25 5 -8 -3 -18 -1 -22 6 -15 23 -255 35
-338 16z"/>
<path d="M837 1554 c-4 -4 -7 -16 -7 -26 0 -10 -3 -18 -7 -19 -5 0 -26 -2 -48
-3 -21 -2 -41 -8 -43 -15 -2 -6 -14 -8 -28 -5 -19 5 -23 3 -19 -9 6 -15 -20
-31 -35 -22 -4 3 -13 -2 -19 -9 -14 -17 -62 -7 -86 18 -20 19 -19 26 3 26 11
0 27 9 37 20 35 38 -8 21 -75 -30 -36 -28 -86 -66 -112 -86 -50 -38 -62 -64
-28 -64 11 0 20 5 20 11 0 10 68 79 79 79 3 0 15 -12 27 -26 22 -25 23 -25 49
-8 23 15 28 15 35 3 7 -11 12 -11 22 -1 20 20 23 15 26 -58 1 -39 -1 -70 -5
-70 -5 1 -21 12 -38 25 -23 19 -26 25 -12 25 11 0 17 8 17 25 0 24 -1 24 -19
8 -37 -34 -46 -39 -81 -41 -19 -1 -48 -12 -65 -24 -18 -13 -46 -22 -72 -23
-24 -1 -43 -1 -43 1 0 1 4 14 10 28 15 40 4 31 -33 -26 -70 -109 -85 -142 -89
-203 -3 -33 -3 -49 -1 -35 3 14 11 33 20 42 8 9 12 22 8 27 -3 6 -3 17 2 24 4
6 15 32 23 56 9 25 20 46 26 48 16 5 42 -59 47 -114 4 -56 -8 -78 -35 -68 -17
7 -43 -28 -54 -69 -4 -18 -2 -26 6 -26 9 0 11 -11 7 -34 -6 -39 0 -51 20 -35
10 9 13 8 13 -5 0 -21 16 -21 24 0 8 22 8 22 -12 26 -15 3 -14 6 6 16 18 11
22 10 22 -2 0 -9 7 -12 20 -9 64 17 24 83 -43 72 -42 -7 -45 5 -7 27 40 22
157 74 169 74 16 0 14 -25 -3 -40 -8 -6 -13 -17 -10 -24 9 -23 -14 -64 -38
-68 -13 -2 -23 -10 -23 -18 0 -8 -9 -22 -20 -31 -17 -14 -17 -19 -6 -33 19
-23 9 -29 -23 -15 -22 11 -29 10 -43 -3 -18 -19 -8 -42 16 -35 13 3 17 -4 18
-34 1 -21 -3 -42 -9 -45 -7 -4 -8 -2 -4 4 4 8 0 12 -12 12 -19 0 -45 23 -55
50 -5 13 -6 13 -6 -1 -1 -8 15 -33 35 -55 49 -53 61 -72 68 -116 4 -21 13 -41
21 -45 11 -7 45 -81 45 -99 0 -2 -9 -4 -20 -4 -14 0 -20 -7 -20 -22 0 -37 13
-48 49 -44 59 7 102 71 69 104 -9 9 -9 12 0 12 8 0 9 10 5 32 -4 22 -3 29 5
24 8 -5 12 0 12 13 0 22 24 29 36 10 12 -20 92 -4 120 25 27 26 44 26 44 0 0
-8 9 -14 19 -14 11 0 21 -8 24 -17 2 -12 11 -2 26 32 l22 49 -21 64 c-20 59
-21 65 -6 97 9 18 16 40 16 48 0 9 4 18 10 22 5 3 7 12 3 20 -3 8 0 15 6 15 6
0 11 -4 11 -10 0 -5 4 -10 9 -10 5 0 7 8 4 19 -3 10 0 22 5 25 7 4 6 16 -1 36
-10 26 -8 32 16 54 31 29 32 32 12 52 -17 17 -20 50 -5 59 5 3 17 -9 26 -28
15 -31 15 -36 -1 -66 -20 -40 -12 -52 17 -23 19 19 23 19 33 5 10 -13 11 -11
8 14 -3 19 1 34 11 42 23 20 20 34 -14 53 -24 14 -30 24 -30 53 0 39 -7 44
-25 18 -7 -9 -17 -13 -23 -9 -17 10 -15 66 2 66 10 0 14 15 13 58 0 59 23 126
52 148 11 9 6 12 -26 17 -27 5 -43 14 -49 28 -5 11 -13 17 -17 13z m-36 -85
c16 -8 18 -13 9 -24 -6 -8 -17 -12 -23 -10 -7 3 -19 1 -27 -5 -12 -7 -12 -12
-2 -22 6 -6 12 -20 12 -30 0 -24 17 -23 25 2 3 11 12 20 20 20 7 0 15 6 18 13
2 6 4 -3 5 -21 0 -22 -5 -37 -19 -45 -23 -14 -24 -30 -4 -47 14 -12 14 -15 0
-30 -8 -9 -15 -34 -15 -55 0 -32 -2 -36 -15 -25 -11 9 -20 9 -44 -3 -27 -13
-30 -13 -36 1 -5 14 -7 14 -15 2 -7 -11 -11 -11 -24 -1 -21 17 -21 100 -1 127
8 10 15 29 15 42 0 18 4 22 18 18 12 -4 22 4 35 30 9 19 17 44 17 54 0 22 21
26 51 9z m-219 -228 c50 -40 107 -151 77 -151 -7 0 -17 -8 -24 -17 -12 -16
-14 -16 -40 1 -26 17 -28 26 -10 70 7 15 5 17 -13 12 -25 -8 -45 22 -46 71 -1
39 18 44 56 14z m108 -252 c0 -20 -22 -54 -64 -98 -34 -36 -37 -43 -18 -38 14
3 20 1 15 -6 -4 -7 0 -8 12 -4 9 4 23 2 31 -4 10 -8 16 -1 25 32 8 25 20 44
32 47 10 2 16 11 13 18 -3 7 -1 16 3 19 27 16 13 -97 -16 -126 -12 -12 -62
-15 -85 -5 -13 6 -18 4 -18 -7 0 -9 9 -19 20 -22 11 -3 20 -13 20 -20 0 -8 9
-19 20 -25 17 -9 20 -8 20 11 0 12 3 19 7 16 3 -4 12 -2 19 4 14 12 29 -15 41
-73 4 -23 2 -28 -14 -28 -10 0 -24 5 -29 10 -7 7 -23 0 -49 -25 -35 -31 -96
-51 -80 -25 3 6 -1 10 -9 10 -8 0 -20 9 -26 19 -15 30 -12 38 5 14 14 -19 19
-21 41 -11 26 12 22 23 -11 31 -11 3 -1 5 23 6 39 1 43 3 40 23 -2 13 -11 24
-21 26 -10 2 -17 0 -16 -5 3 -19 -3 -20 -40 -12 -22 5 -51 20 -65 34 -14 14
-34 25 -45 25 -11 0 -39 18 -63 40 -29 27 -38 40 -26 40 9 0 18 5 20 12 3 7
14 9 33 4 21 -5 25 -10 16 -16 -18 -10 -3 -33 16 -26 9 4 13 1 11 -6 -3 -7 11
-20 31 -29 31 -13 39 -13 63 -1 24 12 26 15 14 28 -8 8 -26 14 -40 14 -14 0
-31 9 -41 22 -14 21 -14 24 2 36 17 12 16 15 -9 37 -47 40 -29 48 38 16 21
-10 54 -21 71 -24 29 -6 35 -3 48 23 15 29 35 40 35 19z m-237 -211 c15 -11
25 -24 21 -29 -3 -6 -12 -2 -19 8 -12 15 -16 16 -27 4 -8 -8 -9 -15 -3 -17 30
-12 39 -27 45 -73 6 -44 4 -52 -12 -57 -18 -5 -18 -7 -3 -31 23 -34 14 -38
-27 -11 -32 21 -76 92 -79 128 -6 59 2 91 24 99 25 10 41 5 80 -21z"/>
<path d="M976 1508 c-9 -12 -16 -29 -16 -36 0 -7 -7 -21 -16 -30 -14 -13 -16
-31 -12 -104 3 -48 11 -94 17 -102 6 -7 8 -21 5 -30 -4 -11 2 -24 16 -36 30
-26 38 -25 42 3 2 16 9 21 24 19 12 -2 24 4 27 13 5 11 0 15 -18 15 -31 0 -52
34 -35 56 7 7 13 28 15 46 2 25 8 34 29 41 29 10 56 -4 56 -29 0 -14 -38 -30
-47 -20 -4 3 -13 -3 -20 -14 -13 -18 -12 -23 6 -46 15 -20 21 -22 21 -10 0 10
8 16 21 16 15 0 19 5 15 15 -7 20 1 19 22 -1 15 -15 15 -17 -1 -29 -15 -11
-14 -13 8 -25 32 -17 36 -79 6 -87 -12 -3 -17 -11 -14 -19 4 -11 -2 -13 -26
-9 -17 3 -45 7 -62 10 -26 4 -29 2 -24 -13 3 -12 -2 -26 -15 -37 -24 -22 -26
-45 -4 -45 9 0 27 -9 41 -20 30 -24 53 -26 53 -5 0 8 -6 14 -12 13 -8 -2 -12
5 -10 15 2 10 -2 24 -8 32 -8 10 -8 15 2 21 37 24 64 -6 54 -60 -8 -39 -38
-59 -79 -51 -27 4 -29 3 -16 -7 13 -9 15 -17 7 -40 -13 -36 -24 -35 -43 2 -9
17 -20 30 -26 30 -42 0 25 -115 74 -126 22 -5 25 -9 16 -21 -17 -19 5 -43 23
-25 18 18 24 15 38 -17 15 -38 35 -46 38 -15 1 16 -3 24 -14 24 -10 0 -14 7
-12 23 3 20 9 22 56 22 34 -1 52 3 52 11 0 9 8 10 31 4 31 -9 79 2 79 18 0 5
-9 21 -21 36 -20 25 -48 34 -63 19 -4 -5 -21 -8 -37 -8 -23 0 -31 6 -39 29
-13 38 -13 40 5 24 59 -53 70 -47 26 14 -31 45 -35 70 -31 207 1 44 5 54 21
58 10 3 19 12 19 20 0 9 16 -2 41 -27 22 -23 39 -43 37 -45 -2 -1 -13 -6 -26
-9 -17 -6 -24 -3 -30 14 -7 19 -10 15 -19 -24 -9 -41 -8 -46 7 -46 9 0 20 -3
24 -7 4 -4 23 -8 43 -9 l35 -2 -6 36 c-3 20 -6 47 -6 59 0 14 -10 28 -28 37
-26 14 -28 18 -26 78 1 34 3 70 5 78 2 8 0 17 -6 19 -27 12 -33 26 -19 41 7 9
11 25 7 38 -6 26 -4 26 -39 7 -16 -8 -36 -15 -45 -15 -20 0 -46 -28 -51 -55
-2 -14 -12 -20 -30 -21 -20 -1 -25 3 -21 15 3 10 -2 7 -14 -6 -13 -16 -22 -20
-33 -13 -23 15 -34 12 -20 -5 10 -12 8 -23 -8 -55 -11 -23 -23 -37 -27 -31 -9
15 1 91 14 104 6 6 11 32 11 57 0 25 5 51 12 58 9 9 9 12 1 12 -7 0 -19 -10
-27 -22z"/>
<path d="M1414 1015 c-7 -18 -44 -20 -44 -2 -1 25 -30 -28 -30 -54 0 -15 -4
-31 -10 -34 -6 -4 -10 6 -10 24 0 16 5 33 11 37 8 4 7 9 -2 14 -12 8 -49 -8
-49 -22 0 -3 15 -31 33 -62 24 -41 38 -56 55 -56 12 0 22 5 22 10 0 6 -9 10
-20 10 -17 0 -20 6 -17 35 1 19 6 35 10 35 11 0 68 -25 117 -50 46 -24 70 -12
70 35 0 19 -4 35 -10 35 -5 0 -10 -8 -10 -17 0 -10 -4 -25 -10 -33 -7 -12 -12
-12 -35 0 -42 23 -68 65 -55 90 7 14 8 20 0 20 -6 0 -13 -7 -16 -15z"/>
<path d="M880 872 c0 -7 7 -26 15 -42 11 -20 12 -36 6 -53 -6 -16 -6 -28 2
-36 8 -8 6 -15 -9 -25 -10 -8 -17 -16 -14 -18 24 -16 75 -38 87 -38 21 0 10
24 -13 28 -29 6 -41 21 -24 32 23 15 43 12 36 -5 -6 -17 9 -21 19 -5 13 21 24
8 31 -35 4 -27 11 -44 18 -42 15 5 21 87 6 87 -6 0 -8 4 -5 10 4 6 -4 9 -17 7
-20 -2 -23 2 -23 32 0 19 -6 36 -12 38 -7 3 -13 1 -13 -4 0 -5 -9 -9 -20 -10
-11 -1 -20 3 -20 8 0 6 -11 27 -25 47 -14 20 -25 31 -25 24z"/>
<path d="M1510 825 c-17 -18 -31 -24 -47 -20 -15 3 -25 -1 -32 -12 -8 -15 -10
-12 -7 15 4 36 -18 46 -27 11 -5 -17 -11 -20 -34 -15 -22 5 -31 2 -41 -14 -11
-18 -10 -21 13 -30 26 -10 32 -24 15 -35 -8 -5 -7 -12 2 -22 11 -13 13 -13 20
4 7 14 8 13 4 -5 -6 -30 49 -121 58 -97 3 9 0 18 -7 21 -18 7 -10 123 11 147
16 18 47 23 57 8 3 -6 18 -16 34 -24 26 -13 28 -13 24 4 -3 11 -12 19 -21 19
-12 0 -11 5 7 21 22 21 24 40 5 46 -6 2 -21 -8 -34 -22z"/>
<path d="M1071 636 c-7 -8 -24 -17 -39 -21 -27 -7 -27 -7 -4 -16 24 -9 29 -24
11 -35 -6 -3 -18 -22 -26 -41 -13 -32 -15 -34 -31 -19 -16 14 -20 13 -43 -17
-13 -18 -33 -49 -44 -69 -18 -35 -20 -36 -33 -17 -18 26 -35 13 -28 -21 4 -23
2 -27 -12 -24 -9 2 -26 -3 -36 -11 -17 -13 -18 -18 -6 -40 7 -14 19 -25 27
-25 16 0 17 12 1 28 -8 8 -9 15 -2 22 7 7 17 0 32 -20 13 -16 26 -30 31 -30 4
0 13 17 19 38 6 20 16 53 22 73 10 33 36 65 66 82 15 8 -43 -135 -58 -144 -13
-8 -2 -60 15 -71 17 -11 55 -10 62 2 4 6 -4 20 -17 31 -15 13 -19 22 -11 25 7
3 10 16 7 32 -6 31 58 180 82 189 7 3 23 20 34 39 17 26 19 37 10 54 -13 24
-14 24 -29 6z"/>
<path d="M616 300 c-9 -16 -16 -35 -16 -44 0 -8 -7 -19 -16 -24 -22 -12 -8
-35 17 -29 10 3 25 -3 35 -14 15 -17 15 -19 0 -25 -22 -8 -57 2 -81 23 -26 24
-74 48 -80 41 -3 -3 3 -21 15 -40 16 -28 37 -42 95 -67 83 -35 119 -39 142
-15 11 11 27 14 49 11 18 -3 37 0 43 6 9 9 14 8 21 -3 13 -21 60 -2 85 35 12
18 27 29 37 27 9 -2 22 6 28 17 10 19 8 21 -20 21 -18 0 -33 -6 -37 -16 -3 -8
-12 -13 -19 -10 -8 3 -14 1 -14 -5 0 -5 -10 -14 -23 -20 -17 -8 -49 -5 -127
11 -107 22 -137 34 -108 45 9 4 30 -1 48 -10 30 -16 32 -15 28 2 -2 10 -10 17
-16 15 -7 -1 -12 8 -12 19 0 17 5 20 25 17 14 -3 30 1 35 8 14 15 -2 27 -24
18 -9 -4 -24 0 -34 8 -32 29 -58 28 -76 -2z"/>
</g>
</svg>
