<?xml version="1.0" standalone="no"?>
<!DOCTYPE svg PUBLIC "-//W3C//DTD SVG 20010904//EN"
 "http://www.w3.org/TR/2001/REC-SVG-20010904/DTD/svg10.dtd">
<svg version="1.0" xmlns="http://www.w3.org/2000/svg"
 width="728.000000pt" height="455.000000pt" viewBox="0 0 728.000000 455.000000"
 preserveAspectRatio="xMidYMid meet">

<g transform="translate(0.000000,455.000000) scale(0.100000,-0.100000)"
fill="#000000" stroke="none">
<path d="M0 2275 l0 -2275 3640 0 3640 0 0 2275 0 2275 -3640 0 -3640 0 0
-2275z m2160 1463 c30 -16 117 -50 193 -77 165 -59 212 -86 293 -163 69 -66
116 -145 139 -233 20 -77 19 -249 -1 -340 -9 -38 -18 -81 -21 -95 -4 -23 -3
-23 8 -6 15 25 39 113 40 151 0 24 5 17 23 -35 49 -139 116 -241 222 -339 164
-152 197 -232 208 -506 8 -182 22 -232 76 -260 44 -23 100 -16 111 13 7 18 5
24 -9 28 -45 14 -47 18 -49 115 l-3 94 21 -27 c30 -40 39 -35 39 21 l0 49 40
-5 c34 -5 48 -1 83 24 79 57 106 66 147 54 27 -8 46 -8 69 0 27 9 35 8 51 -6
11 -10 20 -29 20 -42 0 -25 26 -31 61 -13 16 9 19 7 19 -10 0 -44 -29 -90 -65
-105 -19 -9 -35 -20 -35 -25 0 -5 -14 -25 -31 -45 -27 -30 -30 -40 -25 -70 10
-53 31 -68 89 -62 26 2 61 13 75 24 51 37 60 73 70 268 14 269 36 320 213 495
106 105 166 196 210 319 22 61 28 70 28 45 1 -36 40 -169 47 -161 3 3 -2 31
-11 63 -22 79 -31 292 -15 367 27 130 123 262 243 335 30 18 115 54 189 81
164 59 244 98 322 158 39 30 56 39 52 27 -4 -11 -16 -53 -26 -94 -45 -178
-116 -340 -184 -417 -21 -24 -36 -47 -32 -50 11 -11 160 148 206 218 l42 64
-6 -70 c-4 -38 -13 -176 -21 -306 -8 -129 -21 -271 -30 -314 -29 -139 -110
-284 -201 -360 -25 -21 -43 -40 -40 -42 10 -11 121 55 175 104 l59 53 -5 -63
c-9 -118 -34 -301 -50 -366 -39 -161 -87 -203 -310 -271 -40 -12 -70 -26 -67
-31 3 -5 43 -9 89 -9 111 0 178 25 234 85 23 25 41 43 41 41 0 -2 -13 -45 -30
-95 -40 -124 -90 -228 -138 -292 -68 -91 -109 -103 -250 -79 -40 6 -76 9 -79
6 -3 -3 16 -16 43 -28 50 -22 135 -28 184 -14 l25 8 -25 -24 c-14 -12 -52 -43
-85 -68 -163 -124 -213 -139 -336 -101 -52 17 -60 17 -47 4 9 -8 40 -23 68
-33 29 -10 48 -20 43 -23 -27 -16 -213 -39 -286 -35 -96 5 -122 17 -195 87
-39 37 -61 51 -82 51 -38 0 -60 -24 -60 -66 0 -44 31 -76 103 -109 95 -44 180
-58 344 -59 129 -1 147 -3 118 -13 -18 -6 -87 -35 -152 -64 -112 -50 -122 -53
-199 -53 -44 1 -97 7 -118 14 -52 17 -56 6 -7 -19 25 -13 60 -21 93 -21 l53 0
-123 -65 c-172 -91 -202 -88 -272 34 -19 33 -38 61 -42 61 -15 0 -8 -72 11
-108 18 -35 30 -44 91 -70 19 -8 21 -11 7 -11 -10 -1 -52 -17 -94 -36 -42 -19
-84 -35 -94 -35 -9 0 -50 16 -90 35 -41 19 -83 35 -94 36 -17 0 -17 2 5 11 63
26 74 35 91 73 19 40 26 105 11 105 -4 0 -18 -21 -32 -47 -13 -25 -39 -61 -56
-80 -48 -50 -80 -46 -226 32 l-123 65 53 0 c33 0 68 8 93 21 49 25 45 36 -7
19 -21 -7 -74 -13 -118 -14 -77 0 -87 3 -199 53 -65 29 -134 58 -152 64 -29
10 -11 12 118 13 164 1 249 15 344 59 72 33 103 65 103 109 0 42 -22 66 -60
66 -20 0 -46 -16 -94 -59 -38 -36 -80 -64 -103 -70 -54 -15 -168 -13 -264 4
-118 22 -121 24 -61 44 30 10 61 26 70 34 13 13 5 13 -47 -4 -106 -32 -154
-24 -256 45 -67 44 -186 138 -182 142 1 2 22 -1 46 -7 24 -5 59 -6 79 -3 47 9
127 43 119 50 -3 3 -39 0 -79 -7 -141 -24 -181 -11 -250 80 -48 64 -98 168
-138 292 -17 50 -30 92 -30 93 0 2 21 -18 48 -44 34 -35 62 -52 101 -64 59
-17 206 -22 216 -6 3 5 -27 19 -67 30 -168 49 -238 92 -278 170 -31 60 -58
187 -69 320 -6 69 -13 145 -16 168 l-5 44 54 -50 c57 -52 124 -95 166 -106 20
-6 13 4 -31 46 -97 93 -162 209 -193 346 -9 40 -23 181 -31 315 -8 133 -17
274 -21 312 l-6 70 42 -64 c46 -70 195 -229 206 -218 4 3 -11 26 -32 50 -69
78 -141 246 -188 432 -8 33 -18 68 -22 78 -4 11 17 0 57 -30 35 -26 89 -60
119 -75z"/>
<path d="M2020 3785 c0 -3 13 -44 30 -91 83 -242 163 -344 455 -584 49 -40 96
-91 125 -133 l45 -67 13 52 c7 29 15 91 18 138 11 153 -26 269 -117 365 -68
72 -122 105 -274 170 -137 59 -244 115 -265 140 -12 14 -30 21 -30 10z m240
-155 c8 -5 11 -10 5 -10 -5 0 -17 5 -25 10 -8 5 -10 10 -5 10 6 0 17 -5 25
-10z m-140 -35 c0 -5 -5 -3 -10 5 -5 8 -10 20 -10 25 0 6 5 3 10 -5 5 -8 10
-19 10 -25z m200 10 c14 -8 21 -14 15 -14 -5 0 -21 6 -35 14 -14 8 -20 14 -15
14 6 0 21 -6 35 -14z m131 -66 c19 -16 20 -18 4 -10 -34 17 -51 31 -39 31 7 0
22 -9 35 -21z m-282 -33 c-3 -3 -11 5 -18 17 -13 21 -12 21 5 5 10 -10 16 -20
13 -22z m336 -6 c10 -11 16 -20 13 -20 -3 0 -13 9 -23 20 -10 11 -16 20 -13
20 3 0 13 -9 23 -20z m-305 -35 c14 -19 14 -19 -2 -6 -10 7 -18 18 -18 24 0 6
1 8 3 6 1 -2 9 -13 17 -24z m46 -57 l29 -33 -32 29 c-18 17 -33 31 -33 33 0 8
8 1 36 -29z m345 5 c13 -16 12 -17 -3 -4 -17 13 -22 21 -14 21 2 0 10 -8 17
-17z m27 -48 c-3 -3 -9 2 -12 12 -6 14 -5 15 5 6 7 -7 10 -15 7 -18z m-197
-132 c13 -16 12 -17 -3 -4 -17 13 -22 21 -14 21 2 0 10 -8 17 -17z m246 -5
c-3 -8 -6 -5 -6 6 -1 11 2 17 5 13 3 -3 4 -12 1 -19z m10 -145 c-2 -16 -4 -3
-4 27 0 30 2 43 4 28 2 -16 2 -40 0 -55z m-66 -20 c13 -16 12 -17 -3 -4 -17
13 -22 21 -14 21 2 0 10 -8 17 -17z"/>
<path d="M5230 3775 c-20 -24 -123 -78 -263 -139 -155 -66 -209 -100 -275
-170 -94 -99 -128 -203 -118 -361 3 -55 11 -122 19 -148 l12 -49 33 50 c43 67
107 131 236 236 142 117 255 254 308 376 20 45 78 205 78 215 0 11 -18 4 -30
-10z m-54 -162 c-8 -15 -15 -25 -16 -21 0 12 23 58 27 54 3 -2 -2 -17 -11 -33z
m-146 12 c-14 -8 -32 -14 -40 -14 -8 0 -1 6 15 14 40 18 57 18 25 0z m-101
-39 c-2 -2 -15 -9 -29 -15 -24 -11 -24 -11 -6 3 16 13 49 24 35 12z m221 -26
c-6 -11 -13 -20 -16 -20 -2 0 0 9 6 20 6 11 13 20 16 20 2 0 0 -9 -6 -20z
m-290 -10 c-8 -6 -24 -15 -35 -21 -16 -8 -15 -6 4 10 13 12 28 21 35 21 6 0 4
-5 -4 -10z m263 -35 c-3 -9 -8 -14 -10 -11 -3 3 -2 9 2 15 9 16 15 13 8 -4z
m-37 -53 c-17 -16 -18 -16 -5 5 7 12 15 20 18 17 3 -2 -3 -12 -13 -22z m-16
-25 c0 -2 -10 -12 -22 -23 l-23 -19 19 23 c18 21 26 27 26 19z m-360 -11 c0
-2 -8 -10 -17 -17 -16 -13 -17 -12 -4 4 13 16 21 21 21 13z m-42 -61 c-6 -14
-13 -23 -15 -21 -5 5 15 46 22 46 3 0 -1 -11 -7 -25z m-61 -282 c-2 -16 -4 -3
-4 27 0 30 2 43 4 28 2 -16 2 -40 0 -55z m153 63 c0 -2 -7 -7 -16 -10 -8 -3
-12 -2 -9 4 6 10 25 14 25 6z"/>
<path d="M2004 3458 c3 -13 10 -88 16 -168 24 -320 55 -459 131 -586 53 -89
153 -181 276 -254 59 -35 119 -72 132 -82 34 -26 38 -23 39 25 1 23 9 93 18
156 28 197 10 286 -78 386 -23 26 -118 116 -212 202 -181 164 -281 270 -298
316 -12 33 -30 36 -24 5z m53 -190 c-3 -7 -5 -2 -5 12 0 14 2 19 5 13 2 -7 2
-19 0 -25z m283 -193 c13 -14 21 -25 18 -25 -2 0 -15 11 -28 25 -13 14 -21 25
-18 25 2 0 15 -11 28 -25z m-253 -77 c-3 -8 -6 -5 -6 6 -1 11 2 17 5 13 3 -3
4 -12 1 -19z m353 -13 c13 -14 21 -25 18 -25 -2 0 -15 11 -28 25 -13 14 -21
25 -18 25 2 0 15 -11 28 -25z m-343 -37 c-3 -8 -6 -5 -6 6 -1 11 2 17 5 13 3
-3 4 -12 1 -19z m357 -477 c-2 -3 -12 3 -22 13 -16 17 -16 18 5 5 12 -7 20
-15 17 -18z m51 -29 c-3 -3 -11 0 -18 7 -9 10 -8 11 6 5 10 -3 15 -9 12 -12z"/>
<path d="M5252 3453 c-16 -42 -123 -159 -247 -269 -181 -161 -299 -284 -325
-338 -31 -65 -36 -163 -16 -297 9 -59 16 -127 16 -153 0 -51 6 -55 41 -28 13
10 67 44 120 75 115 67 193 132 249 207 108 144 143 274 170 640 6 85 13 163
16 173 9 28 -13 19 -24 -10z m-25 -185 c-3 -7 -5 -2 -5 12 0 14 2 19 5 13 2
-7 2 -19 0 -25z m-167 -93 c-7 -8 -17 -15 -23 -15 -6 0 -2 7 9 15 25 19 30 19
14 0z m-70 -59 c0 -2 -8 -10 -17 -17 -16 -13 -17 -12 -4 4 13 16 21 21 21 13z
m-40 -40 c0 -2 -8 -10 -17 -17 -16 -13 -17 -12 -4 4 13 16 21 21 21 13z m247
-78 c-3 -8 -6 -5 -6 6 -1 11 2 17 5 13 3 -3 4 -12 1 -19z m-327 9 c0 -2 -12
-14 -27 -28 l-28 -24 24 28 c23 25 31 32 31 24z m317 -59 c-3 -8 -6 -5 -6 6
-1 11 2 17 5 13 3 -3 4 -12 1 -19z m-337 -463 c-7 -8 -17 -15 -23 -15 -6 0 -2
7 9 15 25 19 30 19 14 0z m-55 -35 c-3 -5 -12 -10 -18 -10 -7 0 -6 4 3 10 19
12 23 12 15 0z"/>
<path d="M2777 2731 c-74 -219 -65 -309 40 -422 52 -56 128 -111 208 -152 28
-14 81 -45 118 -70 l67 -45 0 83 c0 181 -37 270 -172 413 -112 118 -162 189
-192 271 l-22 62 -47 -140z m30 -13 c-3 -8 -6 -5 -6 6 -1 11 2 17 5 13 3 -3 4
-12 1 -19z m73 -46 c0 -4 -9 7 -20 23 -11 17 -20 35 -20 40 0 6 9 -5 20 -23
11 -18 20 -36 20 -40z m-83 6 c-3 -8 -6 -5 -6 6 -1 11 2 17 5 13 3 -3 4 -12 1
-19z m-20 -70 c-3 -8 -6 -5 -6 6 -1 11 2 17 5 13 3 -3 4 -12 1 -19z m151 -3
c-3 -3 -9 2 -12 12 -6 14 -5 15 5 6 7 -7 10 -15 7 -18z m-161 -87 c-2 -13 -4
-3 -4 22 0 25 2 35 4 23 2 -13 2 -33 0 -45z m249 0 l29 -33 -32 29 c-31 28
-38 36 -30 36 2 0 16 -15 33 -32z m84 -99 c15 -28 5 -23 -15 7 -9 15 -12 23
-6 20 6 -4 16 -16 21 -27z m-246 -95 c5 -14 4 -15 -9 -4 -17 14 -19 20 -6 20
5 0 12 -7 15 -16z m86 -70 c0 -2 -9 0 -20 6 -11 6 -20 13 -20 16 0 2 9 0 20
-6 11 -6 20 -13 20 -16z m227 -6 c-3 -8 -6 -5 -6 6 -1 11 2 17 5 13 3 -3 4
-12 1 -19z m-147 -44 c0 -2 -9 0 -20 6 -11 6 -20 13 -20 16 0 2 9 0 20 -6 11
-6 20 -13 20 -16z m157 -11 c-3 -10 -5 -4 -5 12 0 17 2 24 5 18 2 -7 2 -21 0
-30z m-87 -29 c0 -2 -13 2 -30 11 -16 9 -30 18 -30 21 0 2 14 -2 30 -11 17 -9
30 -18 30 -21z m56 -35 c3 -6 -5 -3 -20 6 -14 10 -26 19 -26 22 0 7 39 -17 46
-28z m41 -1 c-3 -8 -6 -5 -6 6 -1 11 2 17 5 13 3 -3 4 -12 1 -19z"/>
<path d="M4437 2816 c-24 -75 -83 -160 -193 -276 -136 -144 -174 -233 -174
-408 l0 -94 48 35 c26 19 79 51 117 72 108 59 176 108 226 162 67 72 82 105
87 198 4 75 1 90 -43 220 -26 77 -48 141 -49 142 -1 2 -10 -22 -19 -51z m20
-38 c-3 -8 -6 -5 -6 6 -1 11 2 17 5 13 3 -3 4 -12 1 -19z m-17 -46 c0 -5 -7
-17 -15 -28 -14 -18 -14 -17 -4 9 12 27 19 34 19 19z m-77 -117 c-3 -9 -8 -14
-10 -11 -3 3 -2 9 2 15 9 16 15 13 8 -4z m144 -7 c-3 -8 -6 -5 -6 6 -1 11 2
17 5 13 3 -3 4 -12 1 -19z m-207 -61 c0 -2 -10 -12 -22 -23 l-23 -19 19 23
c18 21 26 27 26 19z m217 -34 c-3 -10 -5 -4 -5 12 0 17 2 24 5 18 2 -7 2 -21
0 -30z m-307 -67 c0 -2 -8 -10 -17 -17 -16 -13 -17 -12 -4 4 13 16 21 21 21
13z m-103 -253 c-3 -10 -5 -4 -5 12 0 17 2 24 5 18 2 -7 2 -21 0 -30z m193 33
c0 -2 -33 -23 -72 -46 -40 -24 -82 -50 -93 -59 -19 -15 -19 -14 -3 3 9 10 49
38 90 62 76 45 78 47 78 40z m-203 -98 c-3 -8 -6 -5 -6 6 -1 11 2 17 5 13 3
-3 4 -12 1 -19z"/>
<path d="M2067 2564 c-5 -6 13 -165 29 -252 40 -219 96 -281 305 -337 50 -13
115 -38 145 -54 58 -34 72 -38 57 -18 -22 27 -35 118 -28 195 13 147 -22 188
-268 314 -89 45 -176 97 -198 118 -21 20 -40 35 -42 34z m148 -152 c-3 -3 -11
0 -18 7 -9 10 -8 11 6 5 10 -3 15 -9 12 -12z m-98 -34 c-3 -7 -5 -2 -5 12 0
14 2 19 5 13 2 -7 2 -19 0 -25z m168 2 c3 -6 -1 -7 -9 -4 -18 7 -21 14 -7 14
6 0 13 -4 16 -10z m40 -20 c3 -6 -1 -7 -9 -4 -18 7 -21 14 -7 14 6 0 13 -4 16
-10z m-198 -42 c-3 -7 -5 -2 -5 12 0 14 2 19 5 13 2 -7 2 -19 0 -25z m243 22
c8 -5 11 -10 5 -10 -5 0 -17 5 -25 10 -8 5 -10 10 -5 10 6 0 17 -5 25 -10z
m105 -60 c3 -6 -1 -7 -9 -4 -18 7 -21 14 -7 14 6 0 13 -4 16 -10z m-301 -96
c3 -8 2 -12 -4 -9 -6 3 -10 10 -10 16 0 14 7 11 14 -7z m24 -49 c-3 -3 -9 2
-12 12 -6 14 -5 15 5 6 7 -7 10 -15 7 -18z m172 -107 c10 -6 7 -7 -10 -2 -14
3 -32 11 -40 16 -10 6 -7 7 10 2 14 -3 32 -11 40 -16z"/>
<path d="M5168 2529 c-21 -22 -102 -70 -195 -118 -246 -125 -281 -166 -268
-313 7 -77 -6 -168 -28 -195 -15 -20 -1 -16 57 18 30 16 95 41 145 54 209 56
265 118 305 337 19 102 34 248 27 251 -3 1 -23 -14 -43 -34z m9 -81 c-3 -8 -6
-5 -6 6 -1 11 2 17 5 13 3 -3 4 -12 1 -19z m-10 -65 c-3 -10 -5 -4 -5 12 0 17
2 24 5 18 2 -7 2 -21 0 -30z m-187 -17 c0 -2 -7 -7 -16 -10 -8 -3 -12 -2 -9 4
6 10 25 14 25 6z m-50 -26 c-8 -5 -19 -10 -25 -10 -5 0 -3 5 5 10 8 5 20 10
25 10 6 0 3 -5 -5 -10z m227 -22 c-3 -7 -5 -2 -5 12 0 14 2 19 5 13 2 -7 2
-19 0 -25z m-281 -3 c-11 -8 -25 -15 -30 -15 -6 1 0 7 14 15 32 19 40 18 16 0z
m264 -52 c-11 -17 -11 -17 -6 0 3 10 6 24 7 30 0 9 2 9 5 0 3 -7 0 -20 -6 -30z
m-310 23 c0 -2 -7 -7 -16 -10 -8 -3 -12 -2 -9 4 6 10 25 14 25 6z m281 -109
c-10 -9 -11 -8 -5 6 3 10 9 15 12 12 3 -3 0 -11 -7 -18z m-181 -147 c-8 -5
-19 -10 -25 -10 -5 0 -3 5 5 10 8 5 20 10 25 10 6 0 3 -5 -5 -10z"/>
<path d="M2676 2440 c-3 -8 -15 -67 -28 -130 -25 -133 -30 -328 -10 -398 16
-54 69 -113 122 -137 22 -10 39 -20 37 -22 -4 -3 -102 26 -140 42 -14 6 -12
-4 12 -58 54 -121 104 -154 215 -144 34 3 72 8 86 12 14 3 5 -5 -20 -17 -25
-12 -67 -27 -95 -33 l-50 -11 60 -39 c75 -48 116 -65 155 -65 39 0 100 25 100
41 0 7 3 9 7 6 3 -4 -6 -21 -22 -37 -16 -17 -26 -30 -23 -30 2 0 40 9 83 20
156 40 232 22 256 -60 16 -54 4 -103 -37 -147 -33 -35 -34 -38 -17 -51 10 -7
33 -12 52 -10 29 3 38 10 57 45 21 40 22 41 28 18 9 -36 -3 -76 -33 -109 l-26
-28 42 5 c55 6 72 20 79 68 4 21 10 36 15 33 13 -8 11 -82 -3 -90 -17 -11 18
-22 67 -23 44 -1 74 12 56 23 -13 8 -15 82 -2 90 5 3 11 -12 15 -33 7 -48 24
-62 79 -68 l42 -5 -22 23 c-30 33 -45 77 -37 112 l6 29 18 -39 c23 -52 64 -68
112 -42 20 11 20 11 -4 37 -43 46 -58 75 -58 110 0 44 23 96 51 116 32 22 118
21 214 -4 43 -11 81 -20 83 -20 3 0 -7 13 -23 30 -16 16 -25 33 -22 37 4 3 7
1 7 -6 0 -7 17 -19 37 -28 60 -25 119 -12 203 44 l72 47 -49 11 c-56 14 -128
43 -121 50 2 3 20 0 39 -5 18 -6 58 -10 87 -10 89 0 132 34 181 140 16 36 28
66 27 67 -1 1 -32 -9 -69 -22 -85 -31 -106 -31 -46 0 58 30 105 83 121 137 20
70 15 266 -10 398 -30 154 -30 153 -55 90 -44 -106 -138 -210 -261 -286 -161
-100 -214 -153 -236 -234 -16 -60 -49 -86 -131 -105 -129 -29 -185 6 -208 133
-6 30 -5 42 4 42 13 0 55 41 55 54 0 5 -11 5 -24 2 -43 -11 -76 45 -43 72 7 6
33 16 58 23 44 12 46 13 40 43 -5 24 -13 32 -34 34 -14 2 -34 -1 -44 -6 -11
-7 -23 -6 -34 1 -13 8 -28 6 -60 -8 -23 -11 -47 -24 -53 -30 -35 -33 -72 -55
-92 -55 -26 0 -30 -11 -13 -42 13 -25 -1 -38 -43 -38 -25 0 -28 -4 -28 -32 0
-49 14 -66 41 -50 11 7 23 11 26 9 9 -10 -18 -121 -34 -140 -16 -16 -28 -19
-86 -14 -44 3 -83 13 -114 29 -41 21 -49 30 -63 74 -8 27 -23 63 -33 79 -25
40 -114 108 -128 99 -7 -4 -9 -3 -6 3 4 6 -20 27 -53 47 -137 85 -232 185
-275 293 -14 35 -26 52 -29 43z m1004 -330 c-8 -5 -19 -10 -25 -10 -5 0 -3 5
5 10 8 5 20 10 25 10 6 0 3 -5 -5 -10z m-803 -366 c-3 -3 -12 -4 -19 -1 -8 3
-5 6 6 6 11 1 17 -2 13 -5z m1550 0 c-3 -3 -12 -4 -19 -1 -8 3 -5 6 6 6 11 1
17 -2 13 -5z m-1387 -98 c0 -2 -8 -10 -17 -17 -16 -13 -17 -12 -4 4 13 16 21
21 21 13z m1221 -13 c13 -16 12 -17 -3 -4 -10 7 -18 15 -18 17 0 8 8 3 21 -13z
m-154 -85 c-3 -8 -6 -5 -6 6 -1 11 2 17 5 13 3 -3 4 -12 1 -19z"/>
<path d="M3904 2110 c-5 -5 -34 -14 -64 -20 -35 -6 -62 -18 -73 -31 -10 -12
-16 -23 -15 -25 2 -1 21 2 43 7 22 5 52 11 67 14 15 3 35 17 44 30 17 26 16
43 -2 25z"/>
<path d="M2160 1926 c0 -21 69 -181 104 -240 14 -25 43 -58 63 -73 33 -25 44
-28 112 -27 90 1 261 15 261 21 0 2 -11 19 -24 36 -13 18 -40 67 -59 109 -45
99 -62 108 -195 108 -112 0 -186 18 -232 56 -23 20 -30 22 -30 10z m163 -93
c-7 -2 -19 -2 -25 0 -7 3 -2 5 12 5 14 0 19 -2 13 -5z m95 -10 c-10 -2 -28 -2
-40 0 -13 2 -5 4 17 4 22 1 32 -1 23 -4z m99 1 c-3 -3 -12 -4 -19 -1 -8 3 -5
6 6 6 11 1 17 -2 13 -5z m-268 -34 c11 -24 11 -24 -3 -6 -9 11 -16 24 -16 30
0 12 5 7 19 -24z m302 13 c13 -16 12 -17 -3 -4 -10 7 -18 15 -18 17 0 8 8 3
21 -13z m63 -109 c3 -8 2 -12 -4 -9 -6 3 -10 10 -10 16 0 14 7 11 14 -7z
m-249 -62 c-3 -3 -11 0 -18 7 -9 10 -8 11 6 5 10 -3 15 -9 12 -12z m228 -9
c-13 -2 -33 -2 -45 0 -13 2 -3 4 22 4 25 0 35 -2 23 -4z m-105 -10 c-15 -2
-42 -2 -60 0 -18 2 -6 4 27 4 33 0 48 -2 33 -4z"/>
<path d="M5087 1915 c-42 -37 -118 -55 -229 -55 -133 0 -150 -9 -195 -108 -19
-42 -46 -91 -59 -109 -13 -17 -24 -34 -24 -36 0 -6 171 -20 261 -21 68 -1 79
2 112 27 43 33 76 86 129 209 45 104 46 128 5 93z m-100 -81 c-3 -3 -12 -4
-19 -1 -8 3 -5 6 6 6 11 1 17 -2 13 -5z m-200 -10 c-3 -3 -12 -4 -19 -1 -8 3
-5 6 6 6 11 1 17 -2 13 -5z m121 -1 c-10 -2 -28 -2 -40 0 -13 2 -5 4 17 4 22
1 32 -1 23 -4z m-175 -25 c-11 -13 -25 -32 -31 -43 -6 -11 -12 -15 -12 -8 0
12 48 73 58 73 3 0 -4 -10 -15 -22z m298 -21 c-10 -9 -11 -8 -5 6 3 10 9 15
12 12 3 -3 0 -11 -7 -18z m-31 -57 c-6 -11 -13 -20 -16 -20 -2 0 0 9 6 20 6
11 13 20 16 20 2 0 0 -9 -6 -20z m-344 -58 c-17 -16 -18 -16 -5 5 7 12 15 20
18 17 3 -2 -3 -12 -13 -22z m77 -39 c-13 -2 -33 -2 -45 0 -13 2 -3 4 22 4 25
0 35 -2 23 -4z m125 -10 c-16 -2 -40 -2 -55 0 -16 2 -3 4 27 4 30 0 43 -2 28
-4z"/>
<path d="M2591 1513 c-29 -14 -76 -28 -104 -32 l-50 -6 56 -43 c123 -96 186
-105 327 -47 46 19 90 35 97 35 30 0 7 18 -86 68 -116 61 -155 65 -240 25z
m122 -10 c-7 -2 -21 -2 -30 0 -10 3 -4 5 12 5 17 0 24 -2 18 -5z m-56 -9 c-3
-3 -12 -4 -19 -1 -8 3 -5 6 6 6 11 1 17 -2 13 -5z m139 -20 c18 -14 18 -14 -6
-3 -31 14 -36 19 -24 19 6 0 19 -7 30 -16z m-229 -10 c-3 -3 -12 -4 -19 -1 -8
3 -5 6 6 6 11 1 17 -2 13 -5z"/>
<path d="M4448 1487 c-92 -49 -115 -67 -85 -67 7 0 51 -16 97 -35 141 -58 204
-49 327 47 l56 43 -50 6 c-28 4 -77 18 -108 33 -86 39 -122 35 -237 -27z m155
16 c-7 -2 -21 -2 -30 0 -10 3 -4 5 12 5 17 0 24 -2 18 -5z m44 -9 c-3 -3 -12
-4 -19 -1 -8 3 -5 6 6 6 11 1 17 -2 13 -5z m-128 -8 c-2 -2 -15 -9 -29 -15
-24 -11 -24 -11 -6 3 16 13 49 24 35 12z m218 -22 c-3 -3 -12 -4 -19 -1 -8 3
-5 6 6 6 11 1 17 -2 13 -5z"/>
<path d="M3086 1383 c-114 -19 -151 -31 -211 -62 -84 -45 -82 -47 50 -57 49
-4 102 -2 138 6 52 10 66 19 123 76 36 35 59 63 52 63 -7 -1 -75 -12 -152 -26z
m61 -19 c-3 -3 -12 -4 -19 -1 -8 3 -5 6 6 6 11 1 17 -2 13 -5z m-74 -11 c-7
-2 -19 -2 -25 0 -7 3 -2 5 12 5 14 0 19 -2 13 -5z m-56 -9 c-3 -3 -12 -4 -19
-1 -8 3 -5 6 6 6 11 1 17 -2 13 -5z m-47 -14 c-8 -5 -19 -10 -25 -10 -5 0 -3
5 5 10 8 5 20 10 25 10 6 0 3 -5 -5 -10z m13 -47 c-13 -2 -35 -2 -50 0 -16 2
-5 4 22 4 28 0 40 -2 28 -4z"/>
<path d="M4094 1347 c58 -58 72 -67 123 -77 36 -8 89 -10 138 -6 132 10 134
12 50 56 -59 32 -95 43 -196 60 -68 11 -137 23 -152 26 -26 5 -22 -1 37 -59z
m59 16 c-7 -2 -19 -2 -25 0 -7 3 -2 5 12 5 14 0 19 -2 13 -5z m80 -10 c-7 -2
-19 -2 -25 0 -7 3 -2 5 12 5 14 0 19 -2 13 -5z m54 -9 c-3 -3 -12 -4 -19 -1
-8 3 -5 6 6 6 11 1 17 -2 13 -5z m38 -14 c3 -6 -1 -7 -9 -4 -18 7 -21 14 -7
14 6 0 13 -4 16 -10z m28 -47 c-13 -2 -35 -2 -50 0 -16 2 -5 4 22 4 28 0 40
-2 28 -4z"/>
<path d="M3175 1149 c-44 -11 -125 -23 -179 -27 l-100 -7 85 -35 c116 -48 178
-47 313 5 88 35 96 40 80 52 -20 15 -81 33 -104 32 -8 -1 -51 -10 -95 -20z
m22 -25 c-3 -3 -12 -4 -19 -1 -8 3 -5 6 6 6 11 1 17 -2 13 -5z m-50 -10 c-3
-3 -12 -4 -19 -1 -8 3 -5 6 6 6 11 1 17 -2 13 -5z"/>
<path d="M3946 1155 c-64 -23 -62 -30 22 -63 158 -62 212 -64 339 -8 l74 33
-98 6 c-54 3 -138 15 -186 26 -102 24 -100 24 -151 6z m161 -31 c-3 -3 -12 -4
-19 -1 -8 3 -5 6 6 6 11 1 17 -2 13 -5z m50 -10 c-3 -3 -12 -4 -19 -1 -8 3 -5
6 6 6 11 1 17 -2 13 -5z"/>
<path d="M3395 1056 c-17 -7 -36 -21 -44 -30 -16 -19 -64 -46 -99 -55 -19 -5
-14 -11 41 -39 106 -53 121 -48 215 81 l43 57 -63 0 c-35 -1 -77 -7 -93 -14z
m105 -20 c0 -2 -8 -10 -17 -17 -16 -13 -17 -12 -4 4 13 16 21 21 21 13z m-42
-56 c-7 -11 -17 -20 -22 -20 -5 0 -1 9 9 20 10 11 20 20 22 20 2 0 -2 -9 -9
-20z m-118 -40 c8 -5 11 -10 5 -10 -5 0 -17 5 -25 10 -8 5 -10 10 -5 10 6 0
17 -5 25 -10z"/>
<path d="M3780 1001 c71 -96 82 -105 127 -98 21 3 60 17 86 32 l48 27 -48 23
c-26 12 -55 30 -63 40 -24 29 -74 45 -140 45 l-60 0 50 -69z m21 22 c13 -16
12 -17 -3 -4 -10 7 -18 15 -18 17 0 8 8 3 21 -13z m34 -43 c10 -11 14 -20 9
-20 -5 0 -15 9 -22 20 -7 11 -11 20 -9 20 2 0 12 -9 22 -20z m125 -40 c-8 -5
-19 -10 -25 -10 -5 0 -3 5 5 10 8 5 20 10 25 10 6 0 3 -5 -5 -10z"/>
<path d="M3607 980 c-3 -8 -8 -27 -11 -41 -7 -33 -43 -78 -70 -89 -20 -8 -20
-8 7 -19 37 -14 70 -14 85 1 13 13 15 98 2 138 -5 18 -9 21 -13 10z"/>
<path d="M3656 959 c-11 -55 -7 -112 10 -130 13 -14 21 -15 52 -7 49 13 49 14
18 39 -30 24 -56 69 -56 98 0 33 -17 33 -24 0z"/>
</g>
</svg>
